PathFileType	4	(X/Y/Z)	C:\Users\WrightLab\Desktop\Jo\P4V17.trc
DataRate	CameraRate	NumFrames	NumMarkers	Units	OrigDataRate	OrigDataStartFrame	OrigNumFrames
100.00	100.00	       11	19	mm	100.00	652	       744
Frame#	Time	Headset_Front			Headset_Back			Headset_Left			Headset_Right			Left_Shoulder			Right_Shoulder			Sternum			C7			Left Elbow			Right Elbow			Left Wrist			Right Wrist			Left ASIS			Right ASIS			S2			Left Knee			Right Knee			Left Ankle			Right Ankle			
		X1	Y1	Z1	X2	Y2	Z2	X3	Y3	Z3	X4	Y4	Z4	X5	Y5	Z5	X6	Y6	Z6	X7	Y7	Z7	X8	Y8	Z8	X9	Y9	Z9	X10	Y10	Z10	X11	Y11	Z11	X12	Y12	Z12	X13	Y13	Z13	X14	Y14	Z14	X15	Y15	Z15	X16	Y16	Z16	X17	Y17	Z17	X18	Y18	Z18	X19	Y19	Z19	

652	6.510	-118.27934	1688.08923	1979.46680	-216.33649	1736.23523	2361.61401							20.23229	1586.33386	2212.95581	-270.34558	1571.16614	2109.51147	-148.11635	1517.42371	2268.04102				174.16982	1242.52002	2253.51489	-417.62686	1227.63257	2144.60547	115.26279	979.66693	2410.58252				14.72797	1088.36353	2306.82666	-299.25986	1082.14160	2186.14355				-6.34058	622.22778	2419.31592	-270.56973	596.67743	2214.63257	88.19465	183.93295	2177.87354	-159.26889	103.09510	2189.10815	
653	6.520	-121.22509	1688.16504	1984.66577	-218.76286	1736.23059	2365.63354							17.62815	1586.96277	2218.12988	-272.41608	1571.07007	2113.07690	-150.33994	1517.11682	2271.48877				172.62068	1242.69080	2257.60620	-419.08823	1229.27771	2149.63403	113.39223	978.89191	2412.45117				12.15365	1088.52979	2311.15918	-300.85004	1082.26221	2186.94922				-11.49685	623.78693	2425.10303	-270.75958	596.67261	2215.24170	84.44081	176.26013	2200.61426	-159.25653	103.10220	2189.11133	
654	6.530	-123.22345	1687.94385	1988.29675	-221.18378	1736.69348	2369.39380							15.67069	1587.61023	2223.05908	-274.34262	1571.36414	2116.72778	-152.74207	1516.67651	2275.08740				170.61617	1242.59192	2261.92358	-420.53806	1228.78247	2157.11890	111.59195	977.84625	2414.62427				9.52205	1089.45581	2315.22607	-301.24588	1083.56311	2189.50464				-17.75237	624.50745	2427.15576	-270.80008	596.56671	2215.50684	80.31155	168.16896	2222.83325	-159.19522	103.23052	2189.17676	
655	6.540	-125.97084	1688.43250	1992.85254	-223.29808	1736.19153	2372.71094							13.33173	1587.57837	2228.07568	-276.03180	1571.52844	2120.45044	-155.25713	1517.28979	2278.96851				168.82896	1242.88794	2265.56885	-421.77090	1228.75769	2161.65527	109.91945	976.52625	2416.39917				7.32783	1089.65979	2318.76001	-303.37656	1083.16797	2189.96753				-22.09415	625.21167	2432.58911	-270.78177	596.45636	2215.68042	76.18134	160.26021	2245.84668	-159.15021	103.08264	2189.08618	
656	6.550	-128.04692	1687.92395	1996.89697	-225.84389	1736.42395	2376.57202							11.17829	1587.95776	2232.24097	-277.96051	1572.38721	2124.05347	-157.17903	1516.82690	2282.06494				166.91133	1243.82239	2271.49976	-423.40564	1230.05579	2166.93677	107.86407	976.03131	2418.49683				4.39153	1090.10046	2323.36816	-304.70532	1082.92749	2190.21509				-27.99753	624.17621	2432.75195	-270.85876	596.35645	2215.74390	72.54945	153.17961	2272.00317	-159.19655	102.95518	2189.08057	
657	6.560	-130.33740	1688.41772	2000.89270										8.86333	1588.20496	2236.91064	-279.81577	1572.23608	2127.60815	-159.46135	1516.63867	2285.26245				164.74556	1244.28760	2276.59814	-425.38376	1230.41772	2172.60474	106.83389	974.05591	2419.92285				1.95675	1090.60046	2327.29565	-306.18451	1083.35120	2191.62158				-32.89826	625.01672	2437.05859	-270.85471	596.35046	2215.91528	67.36669	145.78578	2292.89453	-159.29889	103.05333	2188.98633	
658	6.570	-132.64941	1688.28149	2005.46411										6.80235	1588.65674	2241.87817	-281.29059	1572.41638	2130.80981	-161.79596	1516.72571	2288.63989				163.00642	1244.60059	2281.10376	-426.44272	1230.53931	2177.40332	104.71669	973.09705	2422.47876				-0.65869	1090.99304	2331.84131	-307.36691	1083.52490	2193.08276				-38.10051	625.11035	2439.79443	-270.69724	596.45001	2215.86914	61.06151	140.76851	2314.79004	-159.33437	102.97347	2189.08911	
659	6.580	-135.00960	1688.66541	2009.18506										5.09149	1589.02173	2246.54810	-282.93311	1573.14856	2134.31665	-164.07849	1516.71936	2292.05054				160.71181	1245.01135	2285.32593	-427.34705	1230.87732	2180.65649	103.80184	971.47473	2424.00806				-3.68848	1091.44666	2336.59082	-306.78168	1083.23401	2193.22388				-42.25430	624.83557	2442.93066	-270.68259	596.33240	2215.77051	56.62714	136.28680	2339.15405	-159.37326	102.73158	2188.82300	
660	6.590	-137.26895	1688.48816	2013.06396										2.78544	1589.59021	2251.60156	-284.17264	1573.09863	2137.52832	-166.40509	1517.09412	2295.31885				159.12067	1245.50720	2291.14575	-428.04669	1232.16406	2184.93335	101.95004	970.77063	2426.28027				-6.74540	1091.84888	2341.56104	-307.80804	1083.13867	2193.53174				-46.47292	625.69830	2446.88086	-270.52399	596.21777	2215.58618	50.36438	131.72795	2359.36060				
661	6.600	-139.39688	1688.87842	2016.81287										0.92432	1589.90100	2255.59326	-285.54095	1573.70984	2140.75342	-168.72736	1516.94849	2298.61597				157.15808	1245.62073	2296.25562	-428.67346	1232.64966	2188.95483	100.88064	969.34210	2428.48486				-9.33022	1091.93115	2345.98926	-308.88043	1083.12476	2193.87939				-50.74876	626.61353	2450.78882	-270.56451	596.26581	2215.57568	44.14369	129.02032	2381.35864				
662	6.610	-141.60202	1689.10205	2020.60498										-0.68561	1589.74023	2260.63379	-286.87738	1574.11047	2143.84155	-170.71495	1517.03027	2301.39380				155.21153	1246.04810	2300.86987	-429.22382	1232.72644	2192.65845	99.48427	967.90515	2430.95679				-12.20317	1092.27246	2350.49194	-308.05460	1083.38806	2190.15381				-55.93975	625.39380	2450.74292	-270.45502	596.29193	2215.34766	37.89875	125.62163	2401.65259				
